<svg id="Camada_1" data-name="Camada 1" xmlns="http://www.w3.org/2000/svg" viewBox="0 0 99.85 99.85"><defs><style>.cls-1{fill:#3f3f41;fill-rule:evenodd;}</style></defs><path class="cls-1" d="M83.51,49a2.73,2.73,0,0,0-2.87,3v41.5H60.18V76.64a2.91,2.91,0,0,0-2.58-3H42.82a3.18,3.18,0,0,0-3.13,3V93.46H19.49v-40a2.88,2.88,0,0,0-2.84-3,2.72,2.72,0,0,0-2.84,3V96.84a2.94,2.94,0,0,0,2.84,3H42.82a2.92,2.92,0,0,0,2.55-3V79.64h9.1v17.2a3.23,3.23,0,0,0,3.13,3H83.51a3.16,3.16,0,0,0,2.84-3V52a2.88,2.88,0,0,0-2.84-3Zm15.62,2.24h0C80.35,31,68.7,18.68,51.92,1.11A2.24,2.24,0,0,0,50.21,0,2.79,2.79,0,0,0,48,1.11L1,50.85a3.74,3.74,0,0,0-.85,2.24A2.18,2.18,0,0,0,1,54.94a2.33,2.33,0,0,0,4,0L50.21,7.46,95.16,55.69a2.77,2.77,0,0,0,2,.75,3,3,0,0,0,2-5.23Z" transform="translate(-0.15)"/></svg>